<svg width="434" height="172" viewBox="0 0 434 172" fill="none" xmlns="http://www.w3.org/2000/svg">
<path d="M22.784 72.96C22.9547 73.3867 22.4853 73.728 21.376 73.984C20.2667 74.24 18.8587 74.368 17.152 74.368C14.9333 74.368 12.4587 74.0267 9.728 73.344C7.08267 72.576 4.90667 71.296 3.2 69.504C2.26133 67.7973 1.49333 66.176 0.896 64.64C0.298667 63.0187 0 61.312 0 59.52C0 57.216 0.512 54.1867 1.536 50.432C3.15733 44.544 6.31467 39.3813 11.008 34.944C15.7013 30.5067 21.3333 26.7093 27.904 23.552C34.56 20.3093 41.856 17.6213 49.792 15.488C57.728 13.2693 65.792 11.4347 73.984 9.984C82.176 8.53333 90.1973 7.38133 98.048 6.528C105.899 5.58934 113.067 4.77867 119.552 4.096C125.269 3.49866 130.261 2.944 134.528 2.432C138.795 1.83467 142.293 1.024 145.024 0C145.365 1.19467 145.408 2.73067 145.152 4.608C144.981 6.4 144.597 8.192 144 9.984C143.403 11.776 142.72 13.3547 141.952 14.72C141.184 16 140.459 16.7253 139.776 16.896L122.624 18.304C115.115 18.9867 107.52 19.712 99.84 20.48C92.16 21.1627 84.4373 22.1013 76.672 23.296C77.6107 23.8933 78.5067 24.576 79.36 25.344C80.2987 26.0267 81.0667 26.7947 81.664 27.648C82.3467 28.5013 82.816 29.3973 83.072 30.336C83.4133 31.2747 83.4133 32.2133 83.072 33.152C80.1707 37.504 77.2267 42.112 74.24 46.976C71.3387 51.84 68.48 56.96 65.664 62.336C69.3333 61.568 73.0027 60.928 76.672 60.416C80.3413 59.8187 84.096 59.2213 87.936 58.624C91.1787 58.112 94.592 57.6 98.176 57.088C101.76 56.576 105.216 55.9787 108.544 55.296C109.056 55.4667 109.099 56.192 108.672 57.472C108.331 58.6667 107.776 60.032 107.008 61.568C106.24 63.0187 105.387 64.384 104.448 65.664C103.509 66.8587 102.784 67.4987 102.272 67.584C100.907 67.7547 99.4987 67.8827 98.048 67.968C96.6827 67.968 95.2747 68.0107 93.824 68.096C88.7893 68.4373 83.4133 68.9067 77.696 69.504C72.064 70.016 66.304 70.912 60.416 72.192C57.344 78.336 54.4 84.5227 51.584 90.752C48.8533 96.9813 46.3787 102.997 44.16 108.8C42.0267 114.603 40.2347 120.149 38.784 125.44C37.3333 130.731 36.352 135.467 35.84 139.648C35.9253 138.795 35.4987 137.643 34.56 136.192C33.7067 134.827 32.64 133.504 31.36 132.224C30.1653 131.029 29.0133 130.091 27.904 129.408C26.7947 128.811 26.112 128.853 25.856 129.536C26.0267 126.293 26.5387 122.709 27.392 118.784C28.3307 114.773 29.4827 110.549 30.848 106.112C32.2987 101.675 33.92 97.1093 35.712 92.416C37.5893 87.6373 39.5947 82.816 41.728 77.952C37.8027 79.5733 34.048 81.536 30.464 83.84C26.9653 86.0587 23.7227 88.6613 20.736 91.648C20.1387 92.3307 19.456 93.2267 18.688 94.336C18.0053 95.36 17.3653 96.5547 16.768 97.92C16.1707 99.2 15.6587 100.651 15.232 102.272C14.8053 103.893 14.592 105.515 14.592 107.136C14.592 108.672 14.8053 110.123 15.232 111.488C15.6587 112.853 16.3413 114.048 17.28 115.072H17.664C17.92 115.84 17.6213 116.352 16.768 116.608C16 116.779 15.0187 116.736 13.824 116.48C12.7147 116.224 11.5627 115.84 10.368 115.328C9.17333 114.816 8.27733 114.261 7.68 113.664C6.57067 111.957 6.016 109.867 6.016 107.392C6.016 105.6 6.272 103.723 6.784 101.76C7.38133 99.7973 8.10667 97.8773 8.96 96C9.89867 94.1227 10.88 92.416 11.904 90.88C13.0133 89.2587 14.08 87.936 15.104 86.912H14.976C19.584 82.1333 24.4907 78.208 29.696 75.136C34.9013 71.9787 40.448 69.4187 46.336 67.456C50.0907 59.264 53.888 51.4987 57.728 44.16C61.568 36.736 64.9813 30.2507 67.968 24.704C65.152 25.216 62.336 25.7707 59.52 26.368C56.7893 26.9653 54.0587 27.6053 51.328 28.288C48.0853 29.2267 44.288 30.6347 39.936 32.512C35.584 34.3893 31.4453 36.6507 27.52 39.296C23.5947 41.9413 20.2667 44.8853 17.536 48.128C14.8053 51.2853 13.44 54.656 13.44 58.24C13.44 60.7147 14.08 63.1893 15.36 65.664C16.7253 68.1387 19.0293 70.5707 22.272 72.96H22.784Z" fill="black"/>
<path d="M155.258 100.352C153.466 102.912 151.375 105.515 148.986 108.16C146.682 110.805 144.165 113.195 141.434 115.328C138.703 117.461 135.759 119.211 132.602 120.576C129.445 121.856 126.159 122.411 122.746 122.24C118.991 122.069 116.218 120.875 114.426 118.656C112.634 116.437 111.781 113.877 111.866 110.976C111.951 108.843 112.378 106.752 113.146 104.704C113.914 102.656 114.81 100.651 115.834 98.688C116.943 96.64 118.181 94.6773 119.546 92.8C120.911 90.8373 122.277 88.9173 123.642 87.04C123.983 86.6133 124.367 86.0587 124.794 85.376C125.221 84.6933 125.647 84.1387 126.074 83.712L129.018 79.744C130.554 77.6107 131.962 75.776 133.242 74.24C134.522 72.6187 135.375 71.68 135.802 71.424C134.778 71.5947 133.839 71.7653 132.986 71.936C132.218 72.1067 131.45 72.32 130.682 72.576C129.743 72.832 128.762 73.0453 127.738 73.216C126.799 73.3867 125.519 73.4293 123.898 73.344H122.362C120.485 75.904 118.65 78.592 116.858 81.408C115.066 84.1387 113.402 86.784 111.866 89.344C111.525 89.7707 110.97 89.984 110.202 89.984C109.519 89.984 108.837 89.8987 108.154 89.728C107.471 89.472 106.917 89.1307 106.49 88.704C106.149 88.2773 106.191 87.7653 106.618 87.168C107.301 86.0587 108.026 84.864 108.794 83.584C109.562 82.304 110.287 81.1093 110.97 80C111.738 78.72 112.549 77.3973 113.402 76.032C114.341 74.5813 115.279 73.1307 116.218 71.68C114.938 70.7413 114.298 69.4613 114.298 67.84C114.298 66.9013 114.511 65.8347 114.938 64.64C115.365 63.36 115.877 62.08 116.474 60.8C117.157 59.52 117.882 58.24 118.65 56.96C119.418 55.5947 120.186 54.3147 120.954 53.12C121.637 52.096 122.234 51.0293 122.746 49.92C123.343 48.8107 123.855 47.6587 124.282 46.464C126.586 47.4027 128.762 48.5973 130.81 50.048C132.943 51.4133 134.01 53.12 134.01 55.168C134.01 56.1067 133.711 57.3013 133.114 58.752L127.354 67.072C127.013 67.584 127.226 67.7547 127.994 67.584C128.847 67.4133 130.042 67.072 131.578 66.56C133.114 65.9627 134.821 65.28 136.698 64.512C138.661 63.6587 140.495 62.8053 142.202 61.952C143.994 61.0987 145.573 60.288 146.938 59.52C148.389 58.6667 149.327 57.984 149.754 57.472C150.266 57.472 150.906 57.6427 151.674 57.984C152.442 58.3253 153.21 58.7093 153.978 59.136C154.746 59.5627 155.429 59.9893 156.026 60.416C156.623 60.8427 156.965 61.0987 157.05 61.184C157.733 62.1227 157.861 63.36 157.434 64.896C157.007 66.432 156.197 68.1813 155.002 70.144C153.807 72.0213 152.314 74.112 150.522 76.416C148.815 78.6347 147.023 80.9387 145.146 83.328C144.037 84.7787 142.927 86.2293 141.818 87.68C140.709 89.0453 139.599 90.4533 138.49 91.904C137.637 92.928 136.698 94.1653 135.674 95.616C134.65 97.0667 133.669 98.6027 132.73 100.224C131.791 101.76 130.981 103.296 130.298 104.832C129.701 106.368 129.402 107.776 129.402 109.056C129.402 111.189 130.213 112.299 131.834 112.384C132.773 112.384 133.967 112.043 135.418 111.36C136.869 110.592 138.405 109.568 140.026 108.288C141.647 106.923 143.311 105.387 145.018 103.68C146.725 101.888 148.303 99.968 149.754 97.92C151.29 95.616 152.783 93.2693 154.234 90.88C155.77 88.4053 157.007 86.3573 157.946 84.736C158.287 84.3093 158.799 84.096 159.482 84.096C160.25 84.0107 160.975 84.096 161.658 84.352C162.341 84.608 162.895 84.9493 163.322 85.376C163.749 85.8027 163.791 86.3147 163.45 86.912C162.853 87.8507 162.255 88.832 161.658 89.856C161.146 90.7947 160.591 91.7333 159.994 92.672C159.226 94.0373 158.458 95.36 157.69 96.64C156.922 97.92 156.111 99.1573 155.258 100.352Z" fill="black"/>
<path d="M203.597 75.136C199.928 81.792 195.021 87.3813 188.877 91.904C182.733 96.3413 175.821 99.6693 168.141 101.888V102.912C168.141 105.643 168.653 108.331 169.677 110.976C170.786 113.536 172.493 115.2 174.797 115.968C176.418 116.309 178.381 116.181 180.685 115.584C182.989 114.901 185.421 113.749 187.981 112.128C190.541 110.421 193.186 108.245 195.917 105.6C198.648 102.869 201.293 99.6267 203.853 95.872C205.218 93.9093 206.456 91.9893 207.565 90.112C208.674 88.2347 209.698 86.4427 210.637 84.736C211.149 84.0533 211.832 83.6267 212.685 83.456C213.538 83.2853 214.306 83.328 214.989 83.584C215.757 83.7547 216.269 84.1387 216.525 84.736C216.866 85.3333 216.781 86.0587 216.269 86.912L213.837 90.88C211.789 94.208 209.272 97.9627 206.285 102.144C203.298 106.24 199.672 110.293 195.405 114.304C193.016 116.352 190.626 117.931 188.237 119.04C185.848 120.149 183.544 121.003 181.325 121.6C179.192 122.112 177.229 122.411 175.437 122.496C173.645 122.581 172.237 122.624 171.213 122.624C164.898 122.624 159.992 121.088 156.493 118.016C152.994 114.944 151.117 110.763 150.861 105.472C150.69 100.608 151.586 95.8293 153.549 91.136C155.512 86.3573 158.669 81.0667 163.021 75.264C164.386 73.472 166.221 71.5093 168.525 69.376C170.914 67.2427 173.56 65.3227 176.461 63.616C179.448 61.824 182.605 60.3733 185.933 59.264C189.261 58.1547 192.589 57.6427 195.917 57.728C199.16 57.8133 201.762 58.6667 203.725 60.288C205.688 61.9093 206.669 64.0427 206.669 66.688C206.669 69.1627 205.645 71.9787 203.597 75.136ZM195.917 64.256C192.589 64.9387 189.389 66.56 186.317 69.12C183.33 71.5947 180.642 74.496 178.253 77.824C175.949 81.152 173.944 84.608 172.237 88.192C170.616 91.776 169.464 94.9333 168.781 97.664C174.925 95.5307 180.472 92.3733 185.421 88.192C190.456 83.9253 194.594 78.72 197.837 72.576C198.52 71.04 198.861 69.504 198.861 67.968C198.861 66.688 198.605 65.7067 198.093 65.024C197.666 64.3413 196.941 64.0853 195.917 64.256Z" fill="black"/>
<path d="M275.928 64.384C273.112 69.6747 270.381 74.9653 267.736 80.256C265.091 85.5467 262.787 90.752 260.824 95.872H260.952C259.928 98.3467 259.032 100.907 258.264 103.552C257.496 106.112 257.112 108.373 257.112 110.336C257.112 112.555 257.368 113.835 257.88 114.176H259.032C261.336 113.408 263.555 112.085 265.688 110.208C267.821 108.331 269.869 106.197 271.832 103.808C273.795 101.333 275.629 98.7307 277.336 96C279.128 93.2693 280.792 90.6667 282.328 88.192C282.755 87.5947 283.096 87.04 283.352 86.528C283.693 85.9307 284.035 85.3333 284.376 84.736C284.632 84.3093 285.144 84.096 285.912 84.096C286.68 84.0107 287.405 84.096 288.088 84.352C288.856 84.608 289.453 84.9493 289.88 85.376C290.307 85.8027 290.349 86.3147 290.008 86.912C289.496 87.68 288.984 88.4907 288.472 89.344C288.045 90.112 287.576 90.9227 287.064 91.776C284.419 96.128 281.517 100.523 278.36 104.96C275.203 109.312 271.533 113.28 267.352 116.864C266.755 117.376 265.987 117.973 265.048 118.656C264.109 119.339 263.043 119.979 261.848 120.576C260.653 121.173 259.288 121.685 257.752 122.112C256.301 122.453 254.68 122.581 252.888 122.496C248.707 122.155 245.677 120.875 243.8 118.656C241.923 116.437 240.984 113.792 240.984 110.72V108.928C239.363 110.635 237.656 112.256 235.864 113.792C234.157 115.328 232.365 116.693 230.488 117.888C228.696 119.083 226.861 120.064 224.984 120.832C223.107 121.515 221.229 121.856 219.352 121.856C216.28 121.6 213.677 120.875 211.544 119.68C209.496 118.485 207.875 117.12 206.68 115.584C205.485 113.963 204.632 112.256 204.12 110.464C203.608 108.587 203.352 106.795 203.352 105.088C203.352 104.405 203.395 103.723 203.48 103.04C203.48 102.357 203.523 101.76 203.608 101.248C203.949 98.5173 204.76 95.5307 206.04 92.288C207.405 89.0453 209.069 85.8027 211.032 82.56C213.08 79.3173 215.427 76.2027 218.072 73.216C220.803 70.144 223.747 67.456 226.904 65.152C230.061 62.7627 233.347 60.8853 236.76 59.52C240.259 58.0693 243.843 57.344 247.512 57.344C249.816 57.344 251.992 57.6 254.04 58.112C256.685 58.88 258.733 60.3307 260.184 62.464L261.976 59.136L265.56 52.352C267.096 49.536 268.547 46.6347 269.912 43.648C271.363 40.6613 272.685 37.7173 273.88 34.816C275.075 31.9147 276.099 29.184 276.952 26.624C277.891 23.9787 278.659 21.5467 279.256 19.328C280.28 18.816 281.645 18.7733 283.352 19.2C285.144 19.6267 286.851 20.352 288.472 21.376C290.093 22.4 291.416 23.6373 292.44 25.088C293.464 26.5387 293.72 27.9893 293.208 29.44C292.867 30.3787 292.184 31.9147 291.16 34.048C290.221 36.1813 289.069 38.6133 287.704 41.344C286.424 43.9893 285.016 46.8053 283.48 49.792C281.944 52.7787 280.493 55.552 279.128 58.112L275.8 64.384H275.928ZM227.416 112.384C228.611 112.128 230.104 111.232 231.896 109.696C233.688 108.16 235.48 106.325 237.272 104.192C239.149 102.059 240.941 99.84 242.648 97.536C244.44 95.232 245.891 93.184 247 91.392L248.664 86.784C249.688 84.1387 250.797 81.536 251.992 78.976C253.187 76.3307 254.467 73.6853 255.832 71.04C255.576 69.3333 255.021 67.6693 254.168 66.048C253.4 64.4267 251.949 63.5307 249.816 63.36C247.597 63.2747 245.421 63.7867 243.288 64.896C241.24 65.92 239.235 67.328 237.272 69.12C235.309 70.912 233.475 72.96 231.768 75.264C230.061 77.568 228.483 80 227.032 82.56C225.667 85.0347 224.472 87.552 223.448 90.112C222.424 92.5867 221.613 94.8907 221.016 97.024C220.76 98.048 220.504 99.2427 220.248 100.608C219.992 101.973 219.864 103.339 219.864 104.704C219.864 105.899 219.949 107.051 220.12 108.16C220.376 109.184 220.803 110.08 221.4 110.848C221.997 111.616 222.765 112.171 223.704 112.512C224.643 112.768 225.88 112.725 227.416 112.384Z" fill="black"/>
<path d="M349.428 64.384C346.612 69.6747 343.881 74.9653 341.236 80.256C338.591 85.5467 336.287 90.752 334.324 95.872H334.452C333.428 98.3467 332.532 100.907 331.764 103.552C330.996 106.112 330.612 108.373 330.612 110.336C330.612 112.555 330.868 113.835 331.38 114.176H332.532C334.836 113.408 337.055 112.085 339.188 110.208C341.321 108.331 343.369 106.197 345.332 103.808C347.295 101.333 349.129 98.7307 350.836 96C352.628 93.2693 354.292 90.6667 355.828 88.192C356.255 87.5947 356.596 87.04 356.852 86.528C357.193 85.9307 357.535 85.3333 357.876 84.736C358.132 84.3093 358.644 84.096 359.412 84.096C360.18 84.0107 360.905 84.096 361.588 84.352C362.356 84.608 362.953 84.9493 363.38 85.376C363.807 85.8027 363.849 86.3147 363.508 86.912C362.996 87.68 362.484 88.4907 361.972 89.344C361.545 90.112 361.076 90.9227 360.564 91.776C357.919 96.128 355.017 100.523 351.86 104.96C348.703 109.312 345.033 113.28 340.852 116.864C340.255 117.376 339.487 117.973 338.548 118.656C337.609 119.339 336.543 119.979 335.348 120.576C334.153 121.173 332.788 121.685 331.252 122.112C329.801 122.453 328.18 122.581 326.388 122.496C322.207 122.155 319.177 120.875 317.3 118.656C315.423 116.437 314.484 113.792 314.484 110.72V108.928C312.863 110.635 311.156 112.256 309.364 113.792C307.657 115.328 305.865 116.693 303.988 117.888C302.196 119.083 300.361 120.064 298.484 120.832C296.607 121.515 294.729 121.856 292.852 121.856C289.78 121.6 287.177 120.875 285.044 119.68C282.996 118.485 281.375 117.12 280.18 115.584C278.985 113.963 278.132 112.256 277.62 110.464C277.108 108.587 276.852 106.795 276.852 105.088C276.852 104.405 276.895 103.723 276.98 103.04C276.98 102.357 277.023 101.76 277.108 101.248C277.449 98.5173 278.26 95.5307 279.54 92.288C280.905 89.0453 282.569 85.8027 284.532 82.56C286.58 79.3173 288.927 76.2027 291.572 73.216C294.303 70.144 297.247 67.456 300.404 65.152C303.561 62.7627 306.847 60.8853 310.26 59.52C313.759 58.0693 317.343 57.344 321.012 57.344C323.316 57.344 325.492 57.6 327.54 58.112C330.185 58.88 332.233 60.3307 333.684 62.464L335.476 59.136L339.06 52.352C340.596 49.536 342.047 46.6347 343.412 43.648C344.863 40.6613 346.185 37.7173 347.38 34.816C348.575 31.9147 349.599 29.184 350.452 26.624C351.391 23.9787 352.159 21.5467 352.756 19.328C353.78 18.816 355.145 18.7733 356.852 19.2C358.644 19.6267 360.351 20.352 361.972 21.376C363.593 22.4 364.916 23.6373 365.94 25.088C366.964 26.5387 367.22 27.9893 366.708 29.44C366.367 30.3787 365.684 31.9147 364.66 34.048C363.721 36.1813 362.569 38.6133 361.204 41.344C359.924 43.9893 358.516 46.8053 356.98 49.792C355.444 52.7787 353.993 55.552 352.628 58.112L349.3 64.384H349.428ZM300.916 112.384C302.111 112.128 303.604 111.232 305.396 109.696C307.188 108.16 308.98 106.325 310.772 104.192C312.649 102.059 314.441 99.84 316.148 97.536C317.94 95.232 319.391 93.184 320.5 91.392L322.164 86.784C323.188 84.1387 324.297 81.536 325.492 78.976C326.687 76.3307 327.967 73.6853 329.332 71.04C329.076 69.3333 328.521 67.6693 327.668 66.048C326.9 64.4267 325.449 63.5307 323.316 63.36C321.097 63.2747 318.921 63.7867 316.788 64.896C314.74 65.92 312.735 67.328 310.772 69.12C308.809 70.912 306.975 72.96 305.268 75.264C303.561 77.568 301.983 80 300.532 82.56C299.167 85.0347 297.972 87.552 296.948 90.112C295.924 92.5867 295.113 94.8907 294.516 97.024C294.26 98.048 294.004 99.2427 293.748 100.608C293.492 101.973 293.364 103.339 293.364 104.704C293.364 105.899 293.449 107.051 293.62 108.16C293.876 109.184 294.303 110.08 294.9 110.848C295.497 111.616 296.265 112.171 297.204 112.512C298.143 112.768 299.38 112.725 300.916 112.384Z" fill="black"/>
<path d="M367.76 57.984C368.784 57.472 370.107 57.5147 371.728 58.112C373.435 58.624 375.013 59.4347 376.464 60.544C378 61.568 379.237 62.848 380.176 64.384C381.115 65.8347 381.328 67.2853 380.816 68.736L377.36 76.416C376.165 78.976 374.843 81.8773 373.392 85.12C372.027 88.2773 370.704 91.4773 369.424 94.72C368.229 97.8773 367.205 100.907 366.352 103.808C365.499 106.624 365.072 108.928 365.072 110.72C365.072 113.024 365.328 114.176 365.84 114.176H366.864C369.168 113.323 371.387 112 373.52 110.208C375.653 108.331 377.659 106.24 379.536 103.936C381.499 101.547 383.333 99.0293 385.04 96.384C386.832 93.7387 388.453 91.1787 389.904 88.704H389.776L391.44 86.144C392.976 81.9627 394.512 77.568 396.048 72.96C397.669 68.2667 399.205 63.4453 400.656 58.496C401.68 57.984 403.088 57.984 404.88 58.496C406.672 58.9227 408.379 59.648 410 60.672C411.621 61.696 412.944 62.9333 413.968 64.384C414.992 65.8347 415.248 67.2853 414.736 68.736L395.792 114.56C393.829 119.424 391.867 123.947 389.904 128.128C387.941 132.395 385.936 136.405 383.888 140.16C387.131 141.952 390.245 143.829 393.232 145.792C396.219 147.755 399.205 149.76 402.192 151.808H402.064C402.405 151.979 402.704 152.192 402.96 152.448C403.301 152.789 403.643 153.045 403.984 153.216C405.008 153.984 405.051 154.752 404.112 155.52C403.259 156.373 401.979 157.099 400.272 157.696C398.651 158.293 396.944 158.72 395.152 158.976C393.445 159.232 392.293 159.189 391.696 158.848L386.448 155.136L378.256 149.376C375.781 152.96 373.093 156.16 370.192 158.976C367.376 161.792 364.261 164.139 360.848 166.016C357.52 167.979 353.851 169.429 349.84 170.368C345.744 171.392 341.264 171.904 336.4 171.904C333.499 171.904 330.64 171.605 327.824 171.008C325.008 170.496 322.491 169.643 320.272 168.448C317.968 167.253 316.133 165.675 314.768 163.712C313.317 161.835 312.592 159.488 312.592 156.672C312.592 152.917 313.573 149.419 315.536 146.176C317.413 143.019 319.973 140.245 323.216 137.856C326.373 135.552 330.085 133.717 334.352 132.352C338.533 131.072 342.928 130.432 347.536 130.432C350.181 130.432 352.571 130.517 354.704 130.688C356.837 130.859 358.8 131.115 360.592 131.456C362.384 131.797 364.091 132.224 365.712 132.736C367.333 133.248 368.997 133.803 370.704 134.4C374.8 126.72 378.555 118.741 381.968 110.464L382.096 110.08C380.987 111.275 379.877 112.469 378.768 113.664C377.659 114.859 376.507 115.925 375.312 116.864C374.715 117.376 373.947 117.973 373.008 118.656C372.069 119.339 370.96 119.979 369.68 120.576C368.485 121.088 367.12 121.557 365.584 121.984C364.048 122.325 362.427 122.496 360.72 122.496C357.392 122.325 354.875 121.173 353.168 119.04C351.547 116.821 350.736 114.091 350.736 110.848C350.736 109.056 350.907 107.349 351.248 105.728C351.589 104.192 352.059 102.4 352.656 100.352C353.253 98.2187 353.936 95.9573 354.704 93.568C355.557 91.1787 356.411 88.704 357.264 86.144C358.203 83.584 359.141 81.0667 360.08 78.592C361.36 75.008 362.597 71.5093 363.792 68.096C364.987 64.5973 366.011 61.2267 366.864 57.984H367.76ZM334.352 167.68C337.339 167.68 340.24 167.04 343.056 165.76C345.872 164.48 348.603 162.731 351.248 160.512C353.893 158.293 356.411 155.605 358.8 152.448C361.275 149.376 363.664 146.048 365.968 142.464C363.237 141.355 360.379 140.501 357.392 139.904C354.491 139.307 351.248 138.965 347.664 138.88C344.677 138.88 341.52 139.221 338.192 139.904C334.864 140.587 331.835 141.611 329.104 142.976C326.373 144.427 324.112 146.261 322.32 148.48C320.528 150.699 319.717 153.301 319.888 156.288C319.888 158.592 320.357 160.469 321.296 161.92C322.235 163.371 323.429 164.523 324.88 165.376C326.245 166.229 327.781 166.827 329.488 167.168C331.195 167.509 332.816 167.68 334.352 167.68Z" fill="black"/>
<path d="M417.979 115.328C417.979 112.171 418.747 109.952 420.283 108.672C421.819 107.392 423.654 106.752 425.787 106.752C428.006 106.752 429.883 107.392 431.419 108.672C433.04 109.952 433.851 112.171 433.851 115.328C433.851 118.4 433.04 120.619 431.419 121.984C429.883 123.349 428.006 124.032 425.787 124.032C423.654 124.032 421.819 123.349 420.283 121.984C418.747 120.619 417.979 118.4 417.979 115.328Z" fill="black"/>
</svg>
